<?xml version="1.0" standalone="no"?>
<!DOCTYPE svg PUBLIC "-//W3C//DTD SVG 20010904//EN"
 "http://www.w3.org/TR/2001/REC-SVG-20010904/DTD/svg10.dtd">
<svg version="1.0" xmlns="http://www.w3.org/2000/svg"
 width="336.000000pt" height="150.000000pt" viewBox="0 0 336.000000 150.000000"
 preserveAspectRatio="xMidYMid meet">

<g transform="translate(0.000000,150.000000) scale(0.100000,-0.100000)"
fill="#000000" stroke="none">
<path d="M1040 615 c0 -35 -47 -91 -110 -131 -44 -27 -88 -33 -101 -12 -3 5
-12 8 -20 6 -11 -2 -13 9 -11 55 3 66 16 61 -138 47 -58 -5 -142 -10 -186 -12
-60 -2 -80 -6 -77 -15 6 -14 -9 -18 -21 -6 -4 4 -22 8 -41 9 -29 1 -36 -4 -43
-26 -6 -16 -23 -32 -41 -40 -17 -7 -31 -16 -31 -21 0 -5 -22 -9 -48 -9 -52 0
-90 27 -94 66 0 10 -4 -1 -8 -26 l-7 -45 -1 43 c-1 23 -6 42 -12 42 -11 0 -13
-101 -3 -139 6 -23 7 -23 14 -5 7 17 8 17 8 -4 1 -13 5 -21 10 -18 5 3 22 -4
37 -16 16 -12 31 -23 33 -25 2 -1 6 -20 8 -40 3 -35 0 -40 -30 -56 -18 -10
-38 -17 -43 -16 -5 1 -24 1 -42 0 l-33 -1 3 -102 3 -103 83 0 c60 0 85 4 91
14 5 8 35 18 67 22 32 4 60 13 62 18 2 6 10 11 18 11 8 0 53 13 101 30 47 16
94 30 105 30 10 0 18 6 18 14 0 14 49 32 160 60 30 7 56 18 56 25 1 6 2 15 3
20 2 18 34 21 46 5 9 -12 16 -14 31 -6 10 5 38 14 61 19 40 9 42 9 49 -16 6
-22 8 -23 12 -7 3 15 6 16 14 5 7 -10 8 -6 3 14 -3 18 -2 26 4 23 5 -4 19 14
30 40 11 25 25 43 30 40 5 -4 7 4 3 16 -5 21 -6 21 -13 2 -12 -30 -10 -13 6
73 20 103 20 163 0 163 -8 0 -15 -7 -15 -15z m17 -27 c-3 -7 -5 -2 -5 12 0 14
2 19 5 13 2 -7 2 -19 0 -25z"/>
<path d="M11 508 c0 -18 4 -55 9 -83 7 -47 7 -45 9 33 0 49 -3 82 -9 82 -5 0
-10 -15 -9 -32z"/>
<path d="M1488 408 c-10 -12 -18 -26 -18 -30 0 -4 -7 -5 -15 -2 -19 8 -19 -6
-1 -31 13 -18 14 -18 21 6 4 13 6 25 4 26 -2 2 6 10 19 18 12 9 22 20 22 26 0
15 -14 10 -32 -13z"/>
<path d="M2196 320 c-49 -11 -103 -24 -120 -31 -151 -58 -236 -109 -329 -198
-99 -94 -99 -94 40 -89 95 3 128 8 170 27 38 17 50 27 46 39 -5 12 -1 14 15
10 15 -4 22 -2 22 8 0 13 12 18 33 15 4 0 7 3 7 7 0 5 24 14 53 21 28 8 57 17
62 21 6 4 54 22 108 40 53 18 97 38 97 44 0 13 71 46 99 46 11 0 23 5 26 10 3
6 22 10 42 10 54 0 33 11 -49 26 -102 18 -217 16 -322 -6z"/>
<path d="M2657 289 c22 -11 21 -13 -24 -41 -48 -31 -48 -43 1 -52 16 -3 34
-10 40 -16 5 -5 19 -10 31 -10 17 0 18 -2 5 -11 -13 -9 -13 -10 1 -6 9 3 49
-1 90 -9 41 -8 75 -14 77 -14 1 0 2 5 2 11 0 5 -4 8 -8 5 -5 -3 -22 -1 -38 4
-23 7 -17 8 36 8 43 1 58 -2 45 -8 -14 -5 -7 -8 27 -7 26 0 53 -5 60 -11 7 -6
36 -16 63 -23 28 -7 53 -16 56 -21 3 -5 15 -10 28 -13 12 -2 46 -18 76 -35 30
-17 55 -28 55 -23 0 9 -76 56 -190 116 -105 56 -263 121 -345 141 -117 28
-113 28 -88 15z m70 -25 c-3 -3 -12 -4 -19 -1 -8 3 -5 6 6 6 11 1 17 -2 13 -5z"/>
<path d="M972 221 c-8 -5 -12 -23 -10 -47 l3 -38 11 47 c6 26 10 47 10 47 -1
0 -7 -4 -14 -9z"/>
<path d="M1430 146 c0 -9 -4 -14 -10 -11 -6 4 -7 -1 -3 -11 4 -12 3 -15 -5
-10 -7 4 -12 4 -13 -1 -1 -4 -2 -26 -4 -48 -3 -31 -1 -35 6 -17 4 12 5 30 2
39 -4 10 -2 14 4 10 12 -7 40 50 29 60 -3 3 -6 -1 -6 -11z"/>
<path d="M748 80 c-15 -4 -29 -5 -32 -2 -3 3 -16 1 -29 -5 -12 -6 -39 -18 -60
-28 -45 -19 -40 -35 11 -35 52 0 82 10 82 26 0 10 16 14 58 15 31 1 49 3 40 6
-10 2 -18 11 -18 19 0 15 -11 16 -52 4z m-65 -37 c-7 -2 -21 -2 -30 0 -10 3
-4 5 12 5 17 0 24 -2 18 -5z"/>
<path d="M2469 31 c11 -7 10 -10 -5 -13 -10 -2 24 -4 76 -6 52 -1 119 -5 148
-8 76 -9 64 2 -15 14 -104 16 -220 23 -204 13z"/>
</g>
</svg>
